<?xml version="1.0" standalone="no"?>
<!DOCTYPE svg PUBLIC "-//W3C//DTD SVG 20010904//EN"
 "http://www.w3.org/TR/2001/REC-SVG-20010904/DTD/svg10.dtd">
<svg version="1.0" xmlns="http://www.w3.org/2000/svg"
 width="512.000000pt" height="512.000000pt" viewBox="0 0 512.000000 512.000000"
 preserveAspectRatio="xMidYMid meet">

<g transform="translate(0.000000,512.000000) scale(0.100000,-0.100000)"
fill="#000000" stroke="none">
<path d="M2101 4239 c-395 -106 -752 -365 -986 -714 -535 -798 -321 -1873 480
-2410 163 -109 382 -208 543 -243 l42 -10 0 83 0 83 -97 31 c-554 178 -960
643 -1064 1220 -30 160 -30 382 0 542 104 576 511 1042 1064 1220 l97 31 0 94
c0 52 -1 94 -2 93 -2 0 -36 -9 -77 -20z"/>
<path d="M2940 4165 l0 -93 98 -31 c606 -195 1030 -732 1082 -1371 59 -717
-393 -1389 -1082 -1611 l-98 -31 0 -83 0 -83 43 10 c303 67 655 281 879 534
698 789 540 2011 -337 2599 -163 109 -382 208 -542 243 l-43 10 0 -93z"/>
<path d="M2395 3944 c-339 -50 -615 -190 -842 -427 -183 -192 -300 -415 -359
-687 -14 -65 -19 -128 -19 -270 0 -201 17 -311 72 -464 27 -75 101 -227 127
-261 15 -20 16 -19 60 25 l46 45 -45 90 c-342 680 5 1512 730 1749 132 43 238
60 385 60 211 0 382 -40 564 -131 l89 -45 51 52 c60 60 62 56 -66 121 -201
101 -356 139 -593 144 -93 2 -183 1 -200 -1z"/>
<path d="M2510 3350 c0 -57 -1 -60 -27 -66 -159 -36 -231 -82 -289 -186 -27
-49 -29 -61 -29 -153 0 -85 3 -106 23 -143 52 -97 134 -161 347 -272 208 -108
276 -170 291 -265 15 -104 -27 -185 -123 -231 -108 -53 -250 -35 -370 47 -32
22 -69 54 -83 70 l-25 30 -58 -59 -58 -58 63 -61 c87 -82 159 -117 311 -148
26 -5 27 -7 27 -75 l0 -70 75 0 75 0 0 74 0 73 65 18 c76 20 172 79 208 126
54 73 70 120 75 214 9 201 -74 302 -380 462 -225 117 -277 163 -286 252 -16
174 199 267 394 171 36 -17 78 -48 98 -71 l34 -41 56 42 c31 23 56 48 56 55 0
7 -20 35 -44 62 -50 56 -137 106 -217 126 l-54 14 -3 62 -3 61 -74 0 -75 0 0
-60z"/>
<path d="M3677 3252 l-48 -49 44 -89 c91 -183 131 -355 131 -564 -1 -338 -127
-643 -365 -880 -380 -381 -965 -476 -1444 -235 l-90 45 -45 -46 c-44 -44 -45
-45 -25 -60 34 -26 173 -94 255 -124 156 -57 266 -75 470 -75 157 0 201 3 289
23 475 107 861 445 1024 898 56 155 72 263 72 469 -1 169 -4 202 -27 300 -14
61 -40 146 -57 190 -36 92 -112 237 -126 242 -6 2 -32 -19 -58 -45z"/>
</g>
</svg>
